<svg xmlns="http://www.w3.org/2000/svg" version="1.1" xmlns:xlink="http://www.w3.org/1999/xlink" xmlns:svgjs="http://svgjs.com/svgjs" width="1740" height="300" transform="matrix(1,0,0,1,0,0)">
  <text font-family="DM Sans" font-size="260" text-anchor="left" x="310" charspacing="20px">
    <tspan dy="239.20000000000002" x="310">meryenda</tspan>
  </text>
  <path transform="matrix(6.123233995736766e-17,1,-1,6.123233995736766e-17,148,149.33)" d="M31.336,31.66A13.423860305612637,13.423860305612637,-111.194890675525,0,0,16.5,28.5L16.5,28.5A2.700633048459299,2.700633048459299,32.74453660343824,0,1,13.256,24.459L54,-34A29.7873721905162,29.7873721905162,40.635678985453474,0,1,108.074,-19.957L115.865,57.273A24.348422599643666,24.348422599643666,37.8146750866333,0,1,74,76.5ZM-31.336,-31.66A13.423860305612635,13.423860305612635,248.805109324475,0,0,-16.5,-28.5L-16.5,-28.5A2.700633048459299,2.700633048459299,32.74453660343824,0,1,-13.256,-24.459L-54,34A29.78737219051621,29.78737219051621,-319.36432101454653,0,1,-108.074,19.957L-115.865,-57.273A24.348422599643666,24.348422599643666,37.8146750866333,0,1,-74,-76.5Z"/>
</svg>